<svg width="160.361328" height="39.490807" viewBox="0 0 160.361 39.4908" fill="none" xmlns="http://www.w3.org/2000/svg" xmlns:xlink="http://www.w3.org/1999/xlink">
	<desc>
			Created with Pixso.
	</desc>
	<defs/>
	<path id="Vector" d="M117.57 8.75L114.39 5.57L118.6 4.01L118.56 3.85L114.07 4.27L115.41 0.07L115.26 0L112.83 3.7L110.3 0.01L110.15 0.08L111.61 4.28L107.11 3.89L107.07 4.05L111.33 5.58L108.24 8.78L108.35 8.91L112.19 6.62L112.85 11L113.02 11L113.55 6.61L117.46 8.88L117.57 8.75ZM147.06 19.81C153.29 16.8 152.89 10.85 148.56 10.85C145.39 10.85 142.43 14.4 141.49 17.67L140.98 17.67L141.54 3.7L141.4 3.78L141.4 3.7L135.1 5.95C136.08 7.5 136.55 9.3 136.47 11.12L136.47 27.37C136.53 29.2 136.06 31 135.1 32.56L142.73 32.56C141.77 31 141.3 29.2 141.36 27.37L141.36 19.98C142.41 16.31 144.35 14.77 146.3 14.77C148.84 14.77 149.11 19.45 142.43 20.76L146.03 28.64C146.64 29.85 147 31.18 147.06 32.54L154.36 32.54C153.08 30.91 151.96 29.17 151 27.34L147.06 19.81ZM76.39 16.8C76.09 17.81 75.44 19.99 74.71 22.42C74.4 23.43 74.08 24.49 73.77 25.52C72.96 22.79 71.44 17.75 70.8 15.64C70.5 14.9 70.39 14.09 70.47 13.3C70.54 12.5 70.81 11.74 71.25 11.07L58.46 11.07L58.46 6.2L58.24 6.2C56.69 8.76 53.47 10.29 50.96 11.07L50.96 12.05L53.46 12.05L53.46 27.71C53.46 29.8 54.59 32.81 57.98 32.81C59.21 32.89 60.42 32.54 61.41 31.82C62.4 31.11 63.12 30.07 63.44 28.89C62.64 29.3 61.76 29.51 60.86 29.51C60.53 29.55 60.2 29.51 59.89 29.4C59.58 29.29 59.29 29.11 59.06 28.87C58.83 28.63 58.65 28.35 58.55 28.03C58.44 27.72 58.41 27.39 58.45 27.06L58.45 12.05L61.45 12.05C64.42 12.05 64.92 13.58 65.61 15.66L65.61 15.66C65.65 15.79 65.7 15.93 65.74 16.06C66.51 18.34 69.06 25.78 71.5 32.88C71.33 33.46 70.96 33.96 70.47 34.3C69.97 34.64 69.37 34.8 68.77 34.75C67.35 34.76 65.97 34.28 64.86 33.39L63.59 38.95C64.53 39.3 65.52 39.48 66.52 39.49C68.97 39.49 71.02 38.03 72.45 33.5C73.51 30.13 74.59 26.51 75.51 23.43L75.51 23.43L75.51 23.43L75.51 23.42L75.51 23.42C76.33 20.7 77.01 18.41 77.43 17.13C78.08 15.04 78.93 13.02 79.95 11.08L76.11 11.08C77.29 12.16 77.21 14.11 76.39 16.8ZM88.36 12.05L88.36 27.06C88.32 27.39 88.36 27.72 88.46 28.03C88.57 28.35 88.74 28.63 88.98 28.87C89.21 29.11 89.49 29.29 89.8 29.4C90.11 29.51 90.45 29.55 90.78 29.51C91.67 29.51 92.56 29.29 93.35 28.89C93.04 30.07 92.32 31.11 91.33 31.82C90.33 32.54 89.12 32.89 87.9 32.81C84.5 32.81 83.37 29.8 83.37 27.71L83.37 12.05L80.86 12.05L80.86 11.07C83.37 10.29 86.58 8.76 88.14 6.2L88.36 6.2L88.36 11.07L93.04 11.07L92.74 12.05L88.36 12.05ZM125.55 11.9C120.58 11.9 121.56 27.75 128.76 27.75C129.78 27.71 130.77 27.41 131.63 26.87C132.5 26.34 133.21 25.59 133.7 24.7C133.33 29.87 130.92 32.79 127 32.79C122.3 32.79 118.57 28.87 118.57 21.76C118.57 15.22 121.77 10.85 127.4 10.85C129.48 10.96 131.5 11.63 133.22 12.8L133.22 20.82L133.03 20.82C131.19 17.36 128.05 11.9 125.55 11.9ZM109.46 13.32L115.77 11.07L115.72 27.37C115.65 29.2 116.13 31 117.08 32.56L109.46 32.56C110.41 31 110.88 29.2 110.82 27.37L110.82 18.5C110.88 16.68 110.41 14.88 109.46 13.32ZM42.39 16.34L42.02 16.34L42.3 11.07L35.99 13.32C36.94 14.88 37.42 16.68 37.35 18.5L37.35 27.37C37.42 29.2 36.94 31 35.99 32.56L43.61 32.56C42.66 31 42.19 29.2 42.25 27.37L42.25 18.75C42.25 15.31 46.82 15.5 48.85 17.92L48.99 17.92L48.99 11C45.62 10.17 43.03 13.73 42.39 16.34ZM100.58 16.34L100.95 16.34C101.59 13.73 104.19 10.17 107.58 11L107.58 17.92L107.43 17.92C105.41 15.5 100.83 15.31 100.83 18.75L100.83 27.37C100.76 29.2 101.24 31 102.19 32.56L94.57 32.56C95.52 31 95.99 29.2 95.93 27.37L95.93 18.5C95.99 16.68 95.52 14.88 94.57 13.32L100.87 11.07L100.58 16.34ZM26.19 10.84C29.94 10.84 32.66 12.47 32.66 16.72L32.66 27.71C32.66 29.41 33.13 31.08 34.03 32.53L27.7 32.53L27.7 28.91C27.34 30.03 26.65 31 25.72 31.71C24.8 32.42 23.67 32.84 22.51 32.9C21.79 32.96 21.07 32.86 20.4 32.62C19.72 32.38 19.1 32 18.59 31.5C18.07 31 17.67 30.4 17.4 29.73C17.14 29.06 17.02 28.35 17.05 27.63C17.05 23.93 19.91 22.3 22.66 20.73C25.2 19.27 27.65 17.87 27.65 14.94L27.65 12.94C27.65 12.28 27.32 11.78 26.61 11.78C25.54 11.78 23.68 13.61 19.93 17.3C19.41 17.8 18.87 18.34 18.28 18.91L18.13 18.91L20.42 11.67C22.3 11.14 24.24 10.86 26.19 10.84ZM22.42 26.79C22.42 28.56 23.22 29.75 24.76 29.75L24.82 29.75C26.45 29.75 27.47 27.6 27.65 25.88L27.65 17.6C27.19 19.25 26.11 20.44 25.06 21.6C23.72 23.07 22.42 24.5 22.42 26.79ZM17.48 10.91C17.48 8 15.32 5.57 11 5.57L0 5.57C0.95 7.13 1.43 8.93 1.36 10.76L1.36 27.37C1.42 29.19 0.95 30.99 0 32.54L7.62 32.54C6.66 30.99 6.19 29.19 6.25 27.37L6.25 24.38C11.53 20.88 17.48 16.46 17.48 10.91ZM11.93 11.53C11.93 16.61 9.57 20.14 6.31 23.17L6.31 6.61L7.67 6.61C10.7 6.61 11.98 8.39 11.98 11.52L11.93 11.53ZM155.72 30.45L154.83 30.45L154.78 30.02L157.08 30.02L157.08 30.45L156.25 30.45L156.25 32.54L155.72 32.54L155.72 30.45ZM159.7 30.02L159.01 31.71L158.31 30.02L157.66 30.02L157.66 32.54L158.17 32.54L158.17 30.89L158.83 32.53L159.18 32.53L159.84 30.89L159.84 32.54L160.36 32.54L160.36 30.02L159.7 30.02Z" fill="#000000" fill-opacity="1.000000" fill-rule="evenodd"/>
</svg>
